<!-- Generated by IcoMoon.io -->
<svg version="1.1" xmlns="http://www.w3.org/2000/svg" width="24" height="24" viewBox="0 0 24 24" fill='current'>
<title>nightlight_round</title>
<path d="M12 12q0-1.781 0.68-3.352t1.875-2.742 2.742-1.781q0.469-0.188 0.586-0.586t-0.094-0.797-0.68-0.492q-0.797-0.188-1.664-0.234t-1.805 0.094q-1.688 0.188-3.164 0.961t-2.625 1.969-1.875 2.695-0.914 3.188q-0.234 2.25 0.445 4.242t2.086 3.539 3.305 2.414 4.102 0.867q1.078 0 2.109-0.234 0.516-0.094 0.703-0.469t0.070-0.797-0.539-0.609q-1.641-0.656-2.836-1.852t-1.852-2.742-0.656-3.281v0z"></path>
</svg>
