<svg id="value_my_cv" width="300" height="300" xmlns="http://www.w3.org/2000/svg" viewBox="117 -183.6 410.6 410.6"><style>.st0{fill:#0b3859}.st1{fill:#fff}.st2{fill:#279b37}</style><circle class="st0" cx="322.3" cy="21.7" r="205.3"/><path class="st1" d="M446.3-75.4h-248c-6.6 0-12 5.4-12 12v226.8c36.2 32.1 83.8 54.5 136 54.5s99.8-22.5 136-54.5V-63.4c0-6.6-5.4-12-12-12z"/><circle class="st2" cx="322.3" cy="-75.4" r="42.5"/><path class="st1" d="M310.9-60.4c0 1.4-1.2 2.6-2.6 2.6h-3.9c-1.4 0-2.6-1.2-2.6-2.6v-21.4c0-1.4 1.2-2.6 2.6-2.6h3.9c1.4 0 2.6 1.2 2.6 2.6v21.4zm10.6 0c0 1.4-1.2 2.6-2.6 2.6H315c-1.4 0-2.6-1.2-2.6-2.6v-16.1c0-1.4 1.2-2.6 2.6-2.6h3.9c1.4 0 2.6 1.2 2.6 2.6v16.1zm10.6 0c0 1.4-1.2 2.6-2.6 2.6h-3.9c-1.4 0-2.6-1.2-2.6-2.6v-30c0-1.4 1.2-2.6 2.6-2.6h3.9c1.4 0 2.6 1.2 2.6 2.6v30zm10.6 0c0 1.4-1.2 2.6-2.6 2.6h-3.9c-1.4 0-2.6-1.2-2.6-2.6v-8.1c0-1.4 1.2-2.6 2.6-2.6h3.9c1.4 0 2.6 1.2 2.6 2.6v8.1z"/><path class="st0" d="M372.9 107.5c-3-6.8-17.9-11.4-27.8-15.6-9.9-4.3-8.5-6.8-8.9-10.4-.1-1-.1-2.2-.1-3.3 3-2.8 5.4-6.5 7-10.7 0 0 .1-.2.1-.3.4-1 .7-2.1 1-3.1 2.3-.4 3.6-2.8 4.1-5.1.5-.9 1.6-3.1 1.3-5.6-.2-2.5-1.1-3.9-2.1-4.8.5-2.2.8-4.5.8-6.9 0-11-5.7-20.5-14.2-25.3-.2-5.4-5.6-9.7-12.2-9.7s-12 4.3-12.2 9.7c-8.4 4.8-14.2 14.3-14.2 25.3 0 2.2.2 4.4.7 6.4-1.4.7-2.6 2.2-2.9 5.3-.2 2.5.8 4.7 1.3 5.6.5 2.3 1.9 4.7 4.2 5.1.3 1.1.6 2.1 1 3.1 0 .1.1.1.1.2v.1c1.7 4.3 4.2 8.1 7.2 10.9 0 1.1 0 2.2-.1 3.1-.4 3.5.7 6.1-9.2 10.4-9.9 4.3-24.7 8.8-27.8 15.6-3 6.8-1.8 10.9-1.8 10.9h106.5s1.3-4-1.8-10.9z"/><path class="st2" d="M251.8 150.7c-1.1 1-2.7 1.5-4.7 1.5s-3.6-.5-4.7-1.5-1.7-2.5-1.7-4.5v-9.3h3.3v9.3c0 .4 0 .8.1 1.2.1.4.2.7.4 1 .2.3.5.5.9.7.4.2.9.3 1.6.3 1.2 0 2-.3 2.4-.8.4-.5.7-1.3.7-2.5v-9.3h3.3v9.3c.1 2.2-.4 3.7-1.6 4.6zm11.3-13.8c.9 0 1.7.1 2.4.4.7.3 1.2.6 1.6 1.1s.7 1 .9 1.5c.2.6.3 1.2.3 1.8 0 .6-.1 1.2-.3 1.8-.2.6-.5 1.1-.9 1.5a5 5 0 0 1-1.6 1.1c-.7.3-1.5.4-2.4.4h-3.5v5.4h-3.3v-15h6.8zm-.9 7.1c.4 0 .7 0 1.1-.1.4-.1.7-.2.9-.3.3-.2.5-.4.6-.7s.2-.7.2-1.2-.1-.9-.2-1.2-.4-.5-.6-.7c-.3-.2-.6-.3-.9-.3s-.7-.1-1.1-.1h-2.6v4.5h2.6zm11.5-7.1v12.2h7.3v2.8h-10.6v-15h3.3zm9 4.4c.3-1 .8-1.8 1.4-2.5.6-.7 1.4-1.3 2.3-1.7.9-.4 1.9-.6 3.1-.6 1.2 0 2.2.2 3.1.6.9.4 1.7 1 2.3 1.7.6.7 1.1 1.5 1.4 2.5s.5 2 .5 3.1-.2 2.1-.5 3.1c-.3.9-.8 1.8-1.4 2.5-.6.7-1.4 1.2-2.3 1.6-.9.4-1.9.6-3.1.6-1.1 0-2.2-.2-3.1-.6-.9-.4-1.7-.9-2.3-1.6s-1.1-1.5-1.4-2.5c-.3-.9-.5-2-.5-3.1s.1-2.1.5-3.1zm3 5c.1.6.4 1.1.7 1.6.3.5.7.9 1.3 1.1.5.3 1.1.4 1.9.4s1.4-.1 1.9-.4c.5-.3.9-.7 1.3-1.1.3-.5.6-1 .7-1.6.1-.6.2-1.2.2-1.8 0-.7-.1-1.3-.2-1.9-.1-.6-.4-1.2-.7-1.6-.3-.5-.7-.9-1.3-1.2-.5-.3-1.1-.4-1.9-.4s-1.4.1-1.9.4-.9.7-1.3 1.2c-.3.5-.6 1-.7 1.6s-.2 1.3-.2 1.9c0 .6 0 1.2.2 1.8zm20.9-9.4l5.6 15h-3.4l-1.1-3.3h-5.6l-1.2 3.3h-3.3l5.7-15h3.3zm.2 9.2l-1.9-5.5-2 5.5h3.9zm13.2-9.2c1 0 1.9.2 2.7.5.8.3 1.6.8 2.2 1.4.6.6 1.1 1.4 1.4 2.3.3.9.5 2 .5 3.3 0 1.1-.1 2.1-.4 3-.3.9-.7 1.7-1.3 2.4-.6.7-1.3 1.2-2.1 1.6-.8.4-1.8.6-3 .6h-6.5v-15h6.5zm-.2 12.2c.5 0 .9-.1 1.4-.2.4-.2.8-.4 1.2-.8.4-.4.6-.8.8-1.4s.3-1.3.3-2.1-.1-1.4-.2-2c-.1-.6-.4-1.1-.7-1.6-.3-.4-.8-.8-1.3-1-.6-.2-1.2-.3-2-.3h-2.4v9.4h2.9zm13.5-12.2h3.7l3.5 5.9 3.5-5.9h3.7l-5.6 9.2v5.8h-3.3v-5.8l-5.5-9.2zm15.5 4.4c.3-1 .8-1.8 1.4-2.5.6-.7 1.4-1.3 2.3-1.7.9-.4 1.9-.6 3.1-.6 1.2 0 2.2.2 3.1.6.9.4 1.7 1 2.3 1.7.6.7 1.1 1.5 1.4 2.5s.5 2 .5 3.1-.2 2.1-.5 3.1c-.3.9-.8 1.8-1.4 2.5s-1.4 1.2-2.3 1.6c-.9.4-1.9.6-3.1.6-1.1 0-2.2-.2-3.1-.6-.9-.4-1.7-.9-2.3-1.6s-1.1-1.5-1.4-2.5c-.3-.9-.5-2-.5-3.1s.2-2.1.5-3.1zm3 5c.1.6.4 1.1.7 1.6.3.5.7.9 1.3 1.1.5.3 1.1.4 1.9.4s1.4-.1 1.9-.4c.5-.3.9-.7 1.3-1.1.3-.5.6-1 .7-1.6.1-.6.2-1.2.2-1.8 0-.7-.1-1.3-.2-1.9-.1-.6-.4-1.2-.7-1.6-.3-.5-.7-.9-1.3-1.2-.5-.3-1.1-.4-1.9-.4s-1.4.1-1.9.4c-.5.3-.9.7-1.3 1.2-.3.5-.6 1-.7 1.6-.1.6-.2 1.3-.2 1.9 0 .6.1 1.2.2 1.8zm24.5 4.4c-1.1 1-2.7 1.5-4.7 1.5s-3.6-.5-4.7-1.5-1.7-2.5-1.7-4.5v-9.3h3.3v9.3c0 .4 0 .8.1 1.2.1.4.2.7.4 1 .2.3.5.5.9.7.4.2.9.3 1.6.3 1.2 0 2-.3 2.4-.8.4-.5.7-1.3.7-2.5v-9.3h3.3v9.3c.1 2.2-.5 3.7-1.6 4.6zm12.6-13.8c.7 0 1.3.1 1.8.3.5.2 1 .5 1.4.9s.7.8.9 1.3c.2.5.3 1 .3 1.6 0 .9-.2 1.6-.6 2.3-.4.6-1 1.1-1.8 1.5.4.1.7.3 1 .5.3.2.5.5.7.8.2.3.3.7.4 1s.1.8.2 1.1v.8c0 .3 0 .7.1 1s.1.7.2 1c.1.3.2.6.3.8h-3.3c-.2-.5-.3-1-.3-1.7s-.1-1.3-.2-1.9c-.1-.8-.4-1.4-.7-1.7-.4-.4-1-.5-1.8-.5h-3.3v5.9h-3.3v-15h8zm-1.1 6.8c.8 0 1.3-.2 1.7-.5s.6-.9.6-1.6c0-.7-.2-1.3-.6-1.6s-.9-.5-1.7-.5h-3.6v4.2h3.6zm-112.9 22.4c-.2-.3-.4-.6-.7-.8-.3-.2-.6-.4-1-.6-.4-.1-.8-.2-1.2-.2-.7 0-1.4.1-1.9.4s-.9.7-1.3 1.2c-.3.5-.6 1-.7 1.6s-.2 1.3-.2 1.9c0 .6.1 1.2.2 1.8.1.6.4 1.1.7 1.6.3.5.7.9 1.3 1.1.5.3 1.1.4 1.9.4 1 0 1.8-.3 2.4-.9.6-.6.9-1.4 1-2.4h3.2c-.1.9-.3 1.8-.7 2.5-.4.8-.8 1.4-1.4 1.9-.6.5-1.2.9-2 1.2s-1.6.4-2.5.4c-1.1 0-2.2-.2-3.1-.6-.9-.4-1.7-.9-2.3-1.6s-1.1-1.5-1.4-2.5c-.3-.9-.5-2-.5-3.1s.2-2.2.5-3.1c.3-1 .8-1.8 1.4-2.5.6-.7 1.4-1.3 2.3-1.7.9-.4 1.9-.6 3.1-.6.8 0 1.6.1 2.3.4.7.2 1.4.6 2 1s1.1 1 1.4 1.7.6 1.4.7 2.3h-3.2c0-.1-.1-.5-.3-.8zm9.2 11l-4.9-15h3.4l3.3 10.5 3.4-10.5h3.4l-5 15h-3.6zm14.7-12.2v-2.8H311v2.8h-4.5v12.2h-3.3v-12.2h-4.4zm13.8 1.6c.3-1 .8-1.8 1.4-2.5.6-.7 1.4-1.3 2.3-1.7.9-.4 1.9-.6 3.1-.6 1.2 0 2.2.2 3.1.6.9.4 1.7 1 2.3 1.7.6.7 1.1 1.5 1.4 2.5s.5 2 .5 3.1-.2 2.1-.5 3.1c-.3.9-.8 1.8-1.4 2.5s-1.4 1.2-2.3 1.6c-.9.4-1.9.6-3.1.6-1.1 0-2.2-.2-3.1-.6-.9-.4-1.7-.9-2.3-1.6s-1.1-1.5-1.4-2.5c-.3-.9-.5-2-.5-3.1s.2-2.1.5-3.1zm3 5c.1.6.4 1.1.7 1.6.3.5.7.9 1.3 1.1.5.3 1.1.4 1.9.4s1.4-.1 1.9-.4c.5-.3.9-.7 1.3-1.1.3-.5.6-1 .7-1.6.1-.6.2-1.2.2-1.8 0-.7-.1-1.3-.2-1.9-.1-.6-.4-1.2-.7-1.6-.3-.5-.7-.9-1.3-1.2-.5-.3-1.1-.4-1.9-.4s-1.4.1-1.9.4c-.5.3-.9.7-1.3 1.2-.3.5-.6 1-.7 1.6-.1.6-.2 1.3-.2 1.9 0 .6.1 1.2.2 1.8zm20-9.4c1 0 1.9.2 2.7.5.8.3 1.6.8 2.2 1.4.6.6 1.1 1.4 1.4 2.3.3.9.5 2 .5 3.3 0 1.1-.1 2.1-.4 3-.3.9-.7 1.7-1.3 2.4-.6.7-1.3 1.2-2.1 1.6-.8.4-1.8.6-3 .6h-6.5v-15h6.5zm-.3 12.2c.5 0 .9-.1 1.4-.2.4-.2.8-.4 1.2-.8.4-.4.6-.8.8-1.4s.3-1.3.3-2.1-.1-1.4-.2-2c-.1-.6-.4-1.1-.7-1.6-.3-.4-.8-.8-1.3-1-.6-.2-1.2-.3-2-.3h-2.4v9.4h2.9zm16.8-12.2l5.6 15h-3.4l-1.1-3.3h-5.6l-1.2 3.3h-3.3l5.7-15h3.3zm.2 9.2l-1.9-5.5-2 5.5h3.9zm3.6-9.2h3.7l3.5 5.9 3.5-5.9h3.7l-5.6 9.2v5.8h-3.3v-5.8l-5.5-9.2z"/></svg>